<?xml version="1.0" standalone="no"?><!DOCTYPE svg PUBLIC "-//W3C//DTD SVG 1.1//EN" "http://www.w3.org/Graphics/SVG/1.1/DTD/svg11.dtd"><svg t="1585899899645" class="icon" viewBox="0 0 1024 1024" version="1.1" xmlns="http://www.w3.org/2000/svg" p-id="3092" xmlns:xlink="http://www.w3.org/1999/xlink" width="200" height="200"><defs><style type="text/css"></style></defs><path fill="blue" d="M883.835 371.719c-16.225-43.458-39.709-83.524-69.8-119.087-10.704-12.648-29.632-14.225-42.279-3.523-12.648 10.702-14.226 29.632-3.523 42.28 25.61 30.269 45.594 64.356 59.393 101.316 14.28 38.25 21.521 78.551 21.521 119.785 0 91.488-35.627 177.5-100.319 242.191C684.136 819.373 598.124 855 506.636 855s-177.5-35.627-242.191-100.319C199.754 689.99 164.126 603.978 164.126 512.49s35.627-177.5 100.319-242.191S415.148 169.98 506.636 169.98c74.488 0 145.302 23.492 204.788 67.936 13.273 9.917 32.073 7.196 41.989-6.077s7.196-32.072-6.077-41.989c-69.936-52.252-153.168-79.871-240.7-79.871-54.325 0-107.042 10.646-156.685 31.644-47.934 20.274-90.977 49.292-127.933 86.249-36.957 36.956-65.975 79.999-86.249 127.933-20.997 49.643-31.644 102.359-31.644 156.684 0 54.326 10.646 107.042 31.644 156.684 20.274 47.935 49.292 90.978 86.249 127.934 36.956 36.956 79.999 65.975 127.933 86.249C399.595 904.354 452.311 915 506.636 915c54.326 0 107.042-10.646 156.684-31.644 47.935-20.274 90.978-49.293 127.934-86.249s65.975-79.999 86.249-127.934c20.997-49.643 31.644-102.358 31.644-156.684-0.001-48.423-8.516-95.785-25.312-140.77z" p-id="3093"></path><path d="M697.129 316.889c7.936-13.949-2.393-31.091-18.735-31.091H636.67c-8.048 0-15.417 4.402-19.082 11.399l-83.491 159.415c-7.96 15.198-30.203 15.198-38.163 0l-83.492-159.415c-3.664-6.996-11.034-11.399-19.082-11.399h-41.723c-16.342 0-26.671 17.142-18.735 31.091l99.436 174.77c7.936 13.949-2.393 31.091-18.735 31.091H380.2c-11.837 0-21.432 9.37-21.432 20.927 0 11.558 9.596 20.927 21.432 20.927h94.024l0.692 0.675v37.129c0 11.558-9.596 20.927-21.432 20.927H380.2c-11.837 0-21.432 9.37-21.432 20.927 0 11.558 9.596 20.927 21.432 20.927h73.284c11.837 0 21.432 9.37 21.432 20.927v60.757c0 11.558 9.595 20.927 21.432 20.927h37.333c11.837 0 21.432-9.37 21.432-20.927v-60.757c0-11.558 9.595-20.927 21.432-20.927h73.975c11.837 0 21.432-9.37 21.432-20.927 0-11.558-9.596-20.927-21.432-20.927h-73.975c-11.837 0-21.432-9.37-21.432-20.927v-37.129l0.692-0.675h94.715c11.837 0 21.432-9.37 21.432-20.927 0-11.558-9.596-20.927-21.432-20.927h-34.094c-16.342 0-26.671-17.142-18.735-31.091l99.438-174.77z" p-id="3094"></path></svg>