<?xml version="1.0" standalone="no"?><!DOCTYPE svg PUBLIC "-//W3C//DTD SVG 1.1//EN" "http://www.w3.org/Graphics/SVG/1.1/DTD/svg11.dtd"><svg t="1585900298282" class="icon" viewBox="0 0 1024 1024" version="1.1" xmlns="http://www.w3.org/2000/svg" p-id="3849" xmlns:xlink="http://www.w3.org/1999/xlink" width="200" height="200"><defs><style type="text/css"></style></defs><path d="M930.909091 837.818182a46.545455 46.545455 0 0 1 93.090909 0v93.090909a93.090909 93.090909 0 0 1-93.090909 93.090909h-93.090909a93.090909 93.090909 0 0 1-93.090909-93.090909V93.090909a93.090909 93.090909 0 0 1 93.090909-93.090909h93.090909a93.090909 93.090909 0 0 1 93.090909 93.090909v558.545455a46.545455 46.545455 0 0 1-93.090909 0V93.090909h-93.090909v837.818182h93.090909v-93.090909zM93.090909 651.636364v279.272727h93.090909v-279.272727H93.090909z m0-93.090909h93.090909a93.090909 93.090909 0 0 1 93.090909 93.090909v279.272727a93.090909 93.090909 0 0 1-93.090909 93.090909H93.090909a93.090909 93.090909 0 0 1-93.090909-93.090909v-279.272727a93.090909 93.090909 0 0 1 93.090909-93.090909zM465.454545 465.454545v465.454546h93.09091V465.454545h-93.09091z m0-93.090909h93.09091a93.090909 93.090909 0 0 1 93.090909 93.090909v465.454546a93.090909 93.090909 0 0 1-93.090909 93.090909h-93.09091a93.090909 93.090909 0 0 1-93.090909-93.090909V465.454545a93.090909 93.090909 0 0 1 93.090909-93.090909z" fill="#313645" p-id="3850"></path></svg>